<?xml version="1.0" encoding="UTF-8"?>
<svg width="512" height="512" fill="context-fill" fill-opacity="context-fill-opacity" version="1.1" viewBox="0 0 135.47 135.47" xmlns="http://www.w3.org/2000/svg" xmlns:cc="http://creativecommons.org/ns#" xmlns:dc="http://purl.org/dc/elements/1.1/" xmlns:rdf="http://www.w3.org/1999/02/22-rdf-syntax-ns#">
  <title>Icon of LaTeX It! - The Thunderbird LaTeX add-on</title>
  <path d="m42.81 28.595c-7.947 2.1557-16.362 9.1022-16.362 18.204 0 7.9044 6.7783 12.216 14.258 12.216 11.453 0 23.842-5.0301 34.125-5.0301 11.921 0 18.466 9.8207 18.466 20.6 0 6.9463-2.3374 14.851-7.0121 19.881-6.7783 6.9463-16.596 7.665-26.178 7.665-29.451 0-46.981-25.869-46.981-53.655 0-17.724 11.687-38.325 29.217-38.325 13.557 0 28.983 17.007 40.436 17.965 10.752-4.0719 19.4-9.8207 22.205-22.037l-2.8048-1.6768c-1.6362 5.7487-4.6747 11.497-12.154 11.497-8.1808 0-19.867-6.9463-34.36-15.09-13.79 3.1138-28.983 8.8625-38.801 19.162-10.284 10.539-16.127 24.192-16.127 39.044 0 14.852 5.8433 29.463 15.894 39.763 8.1808 8.3836 19.867 11.497 31.321 11.497 26.645 0 56.33-14.372 56.33-46.468 0-12.456-9.5831-20.36-20.569-20.36-10.518 0-27.815 6.7069-36.463 6.7069-5.6097 0-9.5831-3.1138-9.5831-9.1022 0-4.5512 2.3374-8.8625 7.2459-10.539z" stroke-width="15.143"/>
  <path d="m106.93 105.43c-0.66486-4.8431-4.4879-6.8161-7.4797-6.8161-3.1582 0-4.8202 2.3318-5.8177 4.3049-1.6622 2.6906-2.8256 7.5336-2.8256 8.0716 0 0.89686 0.9973 0.89686 1.6622 0.89686 1.3297 0 1.3297 0 1.8284-2.3318 1.3297-5.3811 2.6595-8.6098 4.9865-8.6098 2.327 0 2.327 2.8699 2.327 3.7667 0 0.80717-0.20053 2.2189-0.51654 3.765-0.32515 1.5907-0.62774 2.9393-1.0255 4.6655-0.72027 2.8699-1.3945 5.7399-2.1147 8.6098-0.3416 1.4448-0.9973 4.3049-1.3297 5.5606-0.33244 1.6143-0.9973 4.4842-0.9973 5.0224 0 1.7937 1.1636 2.3318 2.327 2.3318 2.4933 0 2.9919-2.3318 3.3243-3.5874 0.33244-1.2556 1.3297-5.2017 1.6622-6.9955 0.33244-1.2556 0.99731-4.3049 1.3297-5.5605 0.16622-0.71748 1.1912-4.8137 1.4225-5.4634 0.57771-1.7528 2.0681-5.6576 5.2262-8.7068 2.1608-2.1524 4.8202-3.4081 7.646-3.4081 3.4905 0 4.3216 2.6906 4.3216 5.3811 0 4.6636-3.4905 14.35-4.8202 18.116-0.66487 1.9731-0.66487 2.5112-0.66487 3.5874 0 4.3049 3.1582 6.6367 6.6487 6.6367 7.3136 0 10.638-10.942 10.638-12.197 0-1.0762-0.9973-1.0762-1.4959-1.0762-1.3297 0-1.4959 0.35875-1.8284 1.7937-1.1636 4.8431-3.823 9.3273-7.1474 9.3273-0.9973 0-1.8284-0.53811-1.8284-2.6906 0-1.7937 0.66487-3.5874 1.1636-5.3811 1.3297-3.7667 4.4879-12.557 4.4879-16.861 0-6.278-3.9892-8.9685-9.142-8.9685-5.8177 0-9.8069 3.7667-11.968 6.8161z" stroke-width="11.051"/>
  <metadata>
    <rdf:RDF>
      <cc:Work rdf:about="">
        <dc:title>Icon of LaTeX It! - The Thunderbird LaTeX add-on</dc:title>
        <dc:description>Created with LaTeX and the AMSFonts package via $\mathfrak{S}_n$. Edited with Inkscape and exported as "Optimized SVG".</dc:description>
        <dc:format>image/svg+xml</dc:format>
        <dc:type rdf:resource="http://purl.org/dc/dcmitype/StillImage"/>
      </cc:Work>
    </rdf:RDF>
  </metadata>
</svg>
